extratorrent.com 
http://extratorrent.com/torrent/2257543

Plot:
Robo-Geisha’s got a typical family feud at its heart: two sisters who can’t seem to get along and need to work out their differences. One, Kikue (Hitomi Hasebe), is a geisha vying for approval from wealthy men who will buy her company, the other, Yoshie (Aya Kiguchi), is the younger and clumsier of the two who gets no attention at all. When a successful businessman sees Yoshie’s potential - a private athletic moment he witnesses secretly – he transforms her into a geisha too, but not a normal ethereal being as is tradition. No, he wants to use Yoshie and Kikue as robo-geisha’s alongside his deadly Tengu assassins for a megalomanic deed which threatens the whole of Japan. He uses their hatred for each other to achieve his aims, overseeing their transformation into efficient killers with blades springing from their armpits and napalm from their hair to defeat his enemies.


Info:
General
Complete name                    : RoboGeisha 2009 DVDRip(Eng Sub) GoGo(Extra Torrent)RoboGeisha 2009 DVDRip(Eng Sub) GoGo(Extra Torrent).avi
IMDB Link                        : http://www.imdb.com/title/tt1381512/
Format                           : AVI
Format/Info                      : Audio Video Interleave
File size                        : 700 MiB
Duration                         : 1h 41mn
Overall bit rate                 : 964 Kbps
Writing application              : VirtualDubMod 1.5.4.1 (build 2178/release)
Writing library                  : VirtualDubMod build 2178/release

Video
ID                               : 0
Format                           : MPEG-4 Visual
Format profile                   : Advanced Simple@L5
Format settings, BVOP            : Yes
Format settings, QPel            : No
Format settings, GMC             : No warppoints
Format settings, Matrix          : Custom
Codec ID                         : XVID
Codec ID/Hint                    : XviD
Duration                         : 1h 41mn
Bit rate                         : 838 Kbps
Width                            : 608 pixels
Height                           : 336 pixels
Display aspect ratio             : 16:9
Frame rate                       : 25.000 fps
Color space                      : YUV
Chroma subsampling               : 4:2:0
Bit depth                        : 8 bits
Scan type                        : Progressive
Bits/(Pixel*Frame)               : 0.164
Stream size                      : 608 MiB (87%)
Writing library                  : XviD 1.2.1 (UTC 2008-12-04)

Audio
ID                               : 1
Format                           : MPEG Audio
Format version                   : Version 1
Format profile                   : Layer 3
Mode                             : Joint stereo
Mode extension                   : MS Stereo
Codec ID                         : 55
Codec ID/Hint                    : MP3
Duration                         : 1h 41mn
Bit rate mode                    : Variable
Bit rate                         : 113 Kbps
Nominal bit rate                 : 128 Kbps
Channel(s)                       : 2 channels
Sampling rate                    : 48.0 KHz
Stream size                      : 82.4 MiB (12%)
Alignment                        : Aligned on interleaves
Interleave, duration             : 24 ms (0.60 video frame)
Interleave, preload duration     : 162 ms
Writing library                  : LAME3.98r
Encoding settings                : -m j -V 4 -q 2 -lowpass 17 --abr 128
Language                         : Japanese
Subtitles                        : English(*.srt)
Genre                            : Action | Comedy | Sci-Fi

[img]http://imgboot.com/images/fasamoo/pleaseseed.gif[/img] 